<svg xmlns="http://www.w3.org/2000/svg" width="420" height="180" viewBox="0 0 420 180" role="img" aria-label="Current Language Mix">
  <rect x="0.5" y="0.5" width="419" height="179" rx="10" ry="10" fill="#1a1b27" stroke="#44475a" />

  <text x="24" y="24" fill="#f8f8f2" font-family="monospace" font-size="13" font-weight="700">Current Language Mix</text>
  <text x="24" y="40" fill="#a8b3cf" font-family="monospace" font-size="10">Based on active work: InternalSystem + ENIAC-AI-DRIVEN</text>

  <g transform="translate(0, 6)">
    <path d="M95,90 L95,28 A62,62 0 0,1 147.38,123.16 Z" fill="#777BB4" stroke="#1a1b27" stroke-width="1.2"/>
    <path d="M95,90 L147.38,123.16 A62,62 0 0,1 47.14,129.76 Z" fill="#F7DF1E" stroke="#1a1b27" stroke-width="1.2"/>
    <path d="M95,90 L47.14,129.76 A62,62 0 0,1 42.56,57.03 Z" fill="#3776AB" stroke="#1a1b27" stroke-width="1.2"/>
    <path d="M95,90 L42.56,57.03 A62,62 0 0,1 72.18,32.53 Z" fill="#E34F26" stroke="#1a1b27" stroke-width="1.2"/>
    <path d="M95,90 L72.18,32.53 A62,62 0 0,1 95,28 Z" fill="#00B4D8" stroke="#1a1b27" stroke-width="1.2"/>

    <circle cx="95" cy="90" r="25" fill="#1a1b27" stroke="#8be9fd" stroke-opacity="0.4" stroke-width="1.5"/>
    <text x="95" y="86" text-anchor="middle" fill="#a8b3cf" font-family="monospace" font-size="10">Lang</text>
    <text x="95" y="101" text-anchor="middle" fill="#f8f8f2" font-family="monospace" font-size="13" font-weight="700">2026</text>

    <g transform="translate(205, 40)" fill="#f8f8f2" font-family="monospace" font-size="12">
      <g transform="translate(0,0)">
        <circle cx="7" cy="7" r="6" fill="#777BB4"/>
        <text x="22" y="11">PHP <tspan fill="#777BB4" font-weight="700">34%</tspan></text>
      </g>
      <g transform="translate(0,24)">
        <circle cx="7" cy="7" r="6" fill="#F7DF1E"/>
        <text x="22" y="11">JavaScript <tspan fill="#F7DF1E" font-weight="700">30%</tspan></text>
      </g>
      <g transform="translate(0,48)">
        <circle cx="7" cy="7" r="6" fill="#3776AB"/>
        <text x="22" y="11">Python <tspan fill="#3776AB" font-weight="700">20%</tspan></text>
      </g>
      <g transform="translate(0,72)">
        <circle cx="7" cy="7" r="6" fill="#E34F26"/>
        <text x="22" y="11">HTML/CSS <tspan fill="#E34F26" font-weight="700">10%</tspan></text>
      </g>
      <g transform="translate(0,96)">
        <circle cx="7" cy="7" r="6" fill="#00B4D8"/>
        <text x="22" y="11">SQL <tspan fill="#00B4D8" font-weight="700">6%</tspan></text>
      </g>
    </g>
  </g>
</svg>
